<?xml version="1.0" standalone="no"?>
<!DOCTYPE svg PUBLIC "-//W3C//DTD SVG 20010904//EN"
 "http://www.w3.org/TR/2001/REC-SVG-20010904/DTD/svg10.dtd">
<svg version="1.0" xmlns="http://www.w3.org/2000/svg"
 width="512.000000pt" height="512.000000pt" viewBox="0 0 512.000000 512.000000"
 preserveAspectRatio="xMidYMid meet">
<metadata>
Created by potrace 1.14, written by Peter Selinger 2001-2017
</metadata>
<g transform="translate(0.000000,512.000000) scale(0.100000,-0.100000)"
fill="#000000" stroke="none">
<path d="M2505 4618 c-27 -5 -75 -14 -105 -20 -148 -29 -346 -116 -459 -203
-70 -54 -196 -183 -244 -251 -20 -28 -57 -92 -82 -142 -108 -215 -137 -387
-134 -804 l1 -273 -159 -5 -158 -5 -3 -48 c-2 -27 2 -55 9 -63 17 -21 1911
-21 1928 0 7 8 11 36 9 63 l-3 48 -325 5 -325 5 0 290 0 290 27 56 c69 145
236 192 373 105 62 -39 94 -97 110 -196 l10 -65 58 -3 57 -3 0 63 c0 147 -84
275 -218 335 -50 22 -71 26 -162 26 -92 0 -112 -3 -163 -26 -60 -27 -144 -103
-171 -155 -34 -66 -40 -118 -45 -417 l-6 -300 -75 0 -75 0 -3 275 c-4 314 3
368 61 490 43 90 120 170 213 222 86 48 240 75 336 58 202 -34 329 -120 407
-275 40 -80 51 -118 59 -215 l7 -75 58 -3 c46 -2 59 0 64 13 7 19 -13 172 -29
225 -62 205 -219 365 -408 419 -25 7 -55 17 -68 22 -13 5 -86 9 -162 9 -76 0
-149 -4 -162 -9 -13 -5 -43 -15 -68 -22 -173 -49 -366 -247 -402 -414 -30
-134 -38 -234 -37 -460 0 -132 0 -246 -1 -252 0 -9 -22 -13 -75 -13 l-75 0 0
258 c0 357 19 489 94 643 78 162 243 309 412 367 114 39 166 47 314 46 152 -1
279 -23 360 -64 19 -10 51 -25 70 -34 19 -8 60 -36 90 -61 30 -25 58 -45 62
-45 14 0 121 -147 153 -211 52 -102 70 -173 83 -334 l7 -80 54 -3 c36 -2 57 1
63 10 10 15 1 175 -14 233 -42 173 -96 288 -184 394 -110 134 -270 236 -444
283 -189 50 -420 50 -600 -1 -72 -20 -85 -25 -153 -58 -95 -47 -145 -82 -225
-161 -94 -93 -155 -185 -199 -302 -56 -149 -64 -219 -66 -565 l-2 -310 -75 0
-75 0 0 330 c1 360 4 390 68 580 63 192 186 351 372 486 302 218 849 248 1205
66 108 -55 186 -114 281 -214 162 -170 246 -380 267 -668 l7 -100 57 -3 c54
-3 58 -2 64 23 6 25 -16 235 -34 325 -46 220 -194 468 -362 603 -66 53 -180
127 -232 150 -83 37 -105 46 -143 58 -22 6 -49 15 -60 20 -11 4 -38 10 -60 14
-22 4 -65 11 -95 17 -77 13 -385 18 -445 6z"/>
<path d="M1167 2643 c-12 -11 -8 -88 5 -101 9 -9 236 -12 963 -12 522 0 956 4
963 9 9 5 12 25 10 57 l-3 49 -966 3 c-531 1 -969 -1 -972 -5z"/>
<path d="M1164 2376 c-3 -7 -4 -33 -2 -57 l3 -44 970 0 970 0 0 55 0 55 -968
3 c-819 2 -968 0 -973 -12z"/>
<path d="M1176 2117 c-13 -10 -17 -24 -14 -62 l3 -50 158 -5 159 -5 0 -142 c0
-79 -3 -162 -7 -185 -20 -127 -152 -238 -280 -238 -55 0 -73 -17 -69 -67 2
-21 3 -44 3 -51 1 -23 159 -2 231 31 105 48 180 129 220 236 24 67 31 131 33
291 l2 125 75 0 75 0 3 -115 c4 -181 -25 -338 -84 -444 -56 -103 -172 -196
-299 -241 -41 -15 -162 -35 -207 -35 -52 0 -49 4 -50 -73 0 -21 2 -40 5 -43 7
-7 199 12 265 26 29 6 89 30 134 52 144 73 283 237 320 378 33 125 37 165 38
328 l0 173 76 -3 76 -3 -1 -185 c-1 -102 -6 -212 -12 -245 -56 -306 -246 -523
-544 -623 -65 -22 -216 -47 -324 -55 -33 -2 -34 -3 -35 -47 -1 -25 2 -50 6
-56 16 -22 219 -3 353 32 97 25 121 34 195 72 240 123 425 366 466 612 4 25 9
54 11 65 2 11 7 113 10 228 l5 207 79 0 79 0 0 -142 c0 -123 -8 -206 -37 -421
-3 -20 -9 -40 -14 -43 -5 -3 -9 -16 -9 -29 0 -13 -4 -27 -10 -30 -5 -3 -10
-13 -10 -22 0 -9 -21 -57 -46 -106 -99 -195 -247 -344 -439 -440 -172 -87
-261 -111 -475 -128 -164 -14 -165 -14 -165 -75 l1 -49 1423 0 1424 0 0 46 c0
26 -3 52 -7 58 -6 9 -278 11 -1089 11 -595 -1 -1083 3 -1085 7 -1 4 10 12 25
17 16 5 40 17 55 27 14 11 29 19 32 19 3 0 28 16 55 35 l48 35 981 0 980 0 4
56 c1 31 1 58 -1 60 -2 2 -410 4 -906 4 -496 0 -904 3 -908 6 -3 4 19 37 50
75 l55 69 854 0 854 0 0 60 0 60 -820 0 c-650 0 -820 3 -819 13 0 6 12 37 27
67 l27 55 793 3 792 2 0 59 c0 45 -4 60 -16 65 -9 4 -357 6 -773 6 l-756 -1 2
38 c1 21 6 85 12 143 5 58 10 169 10 247 l1 143 328 2 327 3 3 54 c2 37 -1 57
-10 62 -7 5 -439 9 -959 9 -753 0 -949 -3 -963 -13z"/>
</g>
</svg>
